<svg xmlns="http://www.w3.org/2000/svg" viewBox="-2 0 116 108" fill="currentColor">
  <path d="M80.1,55.3c0,0.3,0,0.6-0.1,1c0,0.2,0,0.4-0.1,0.6c0,0.3-0.1,0.6-0.1,0.9c0,0.1,0,0.2-0.1,0.3l-6.1,1.2l20.1,13.7l13.7-20.1l-9.1,1.7c0-0.4,0-0.7,0-1.1C98.4,27.2,76.5,6,49.6,6S0.8,27.2,0.8,53.4s21.8,47.4,48.8,47.4c15.2,0,28.8-6.8,37.7-17.4L67,77.8c-0.5,0.3-0.9,0.6-1.4,0.9c0,0-0.1,0.1-0.1,0.1c-0.6,0.3-1.2,0.7-1.8,1c-0.1,0.1-0.3,0.1-0.4,0.2c-0.6,0.3-1.2,0.6-1.9,0.8c-0.1,0-0.1,0.1-0.2,0.1c-0.6,0.2-1.2,0.4-1.8,0.6c-0.1,0-0.3,0.1-0.4,0.1c-0.7,0.2-1.3,0.4-2,0.6c-0.1,0-0.3,0.1-0.4,0.1c-0.6,0.1-1.2,0.3-1.9,0.4c-0.1,0-0.2,0-0.3,0.1C53.7,82.9,53,83,52.3,83c-0.2,0-0.3,0-0.5,0c-0.7,0.1-1.5,0.1-2.2,0.1C32.7,83.1,19,69.8,19,53.4s13.7-29.7,30.6-29.7c16.9,0,30.6,13.3,30.6,29.7c0,0.5,0,1,0,1.5C80.1,55,80.1,55.2,80.1,55.3z"/>
  <polygon points="33.2,65.8 47.8,44.5 109.5,86.7"/>
</svg>
