<?xml version="1.0" encoding="utf-8"?>
<!-- Generator: Adobe Illustrator 28.2.0, SVG Export Plug-In . SVG Version: 6.00 Build 0)  -->
<svg version="1.1" xmlns="http://www.w3.org/2000/svg" xmlns:xlink="http://www.w3.org/1999/xlink" x="0px" y="0px"
	 viewBox="0 0 108 108" style="enable-background:new 0 0 108 108;" xml:space="preserve">
<style type="text/css">
	.st0{display:none;}
	.st1{display:inline;opacity:0.17;}
	.st2{fill:url(#SVGID_1_);fill-opacity:0.87;}
	.st3{fill:url(#SVGID_00000056406378378764548620000014288548100090859943_);fill-opacity:0.87;}
	.st4{fill:url(#SVGID_00000151505419512639216960000003335820873497082292_);fill-opacity:0.87;}
	.st5{fill:url(#SVGID_00000058588585091155959850000007207599522042052031_);fill-opacity:0.87;}
	.st6{fill:url(#SVGID_00000119107756333438118720000007861141631023131826_);fill-opacity:0.48;}
	.st7{fill:url(#SVGID_00000160887748174656563760000001047187494094672001_);fill-opacity:0.48;}
	.st8{fill:url(#SVGID_00000139978372279044259030000011912984070799411868_);fill-opacity:0.77;}
	.st9{fill:url(#SVGID_00000065780072044224076700000005065809891614796184_);fill-opacity:0.63;}
	.st10{fill:url(#SVGID_00000039852718975488956890000004455513006143358362_);}
	.st11{fill:url(#SVGID_00000174603887394678387670000008041043911475196602_);fill-opacity:0.66;}
	.st12{fill:#4343DD;}
	.st13{fill:url(#SVGID_00000178197994770882614870000010448592923501344913_);fill-opacity:0.48;}
	.st14{fill:url(#SVGID_00000125599322688501019370000001440617246390096541_);fill-opacity:0.48;}
	.st15{opacity:0.64;fill:#FFFFFF;fill-opacity:0.77;}
	.st16{fill:url(#SVGID_00000124124062151677643840000011861018141153886127_);fill-opacity:0.48;}
	.st17{fill:url(#SVGID_00000113311097046300631460000006829066253731402412_);fill-opacity:0.48;}
	.st18{fill:url(#SVGID_00000129907879334583830330000000539210575991985592_);fill-opacity:0.48;}
	.st19{fill:#FFFFFF;fill-opacity:0.48;}
	.st20{fill:url(#SVGID_00000168084874198338094560000010145135063920803467_);fill-opacity:0.48;}
	.st21{fill:url(#SVGID_00000134928505632877826890000014182189652890785924_);fill-opacity:0.48;}
	.st22{fill:url(#SVGID_00000090994653272392454740000006451521730169447590_);fill-opacity:0.48;}
	.st23{fill:url(#SVGID_00000115481274676074402530000016981319077326194839_);fill-opacity:0.48;}
	.st24{fill:url(#SVGID_00000085217298740608416700000016536798600030079164_);fill-opacity:0.48;}
	.st25{fill:url(#SVGID_00000140013662191631773720000011138831016156498616_);fill-opacity:0.77;}
	.st26{fill:url(#SVGID_00000055674349745142832050000013585665086694140324_);fill-opacity:0.63;}
	.st27{fill:url(#SVGID_00000145743483677733922870000002793066247316127655_);}
	.st28{fill:url(#SVGID_00000088100120778243671060000005380562112412513669_);fill-opacity:0.66;}
	.st29{fill:url(#SVGID_00000086693308952082535950000004139015729879941022_);fill-opacity:0.48;}
	.st30{fill:url(#SVGID_00000061436979916871193310000009012007788704718506_);fill-opacity:0.48;}
	.st31{fill:url(#SVGID_00000124147642297823721750000016489582204003166365_);fill-opacity:0.48;}
	.st32{fill:url(#SVGID_00000129198843382809580640000013901525479570575018_);fill-opacity:0.48;}
	.st33{fill:url(#SVGID_00000021106241955196831210000001224852306172329349_);fill-opacity:0.48;}
	.st34{fill:url(#SVGID_00000150101172226212774100000001863836226910547123_);fill-opacity:0.48;}
	.st35{fill:url(#SVGID_00000102517878617979239540000000031885879747586979_);fill-opacity:0.48;}
	.st36{fill:url(#SVGID_00000154422190232322313040000011356487796739410867_);fill-opacity:0.48;}
	.st37{fill:url(#SVGID_00000169516606873824663550000007850455277715016889_);fill-opacity:0.48;}
	.st38{fill:url(#SVGID_00000066513279302414588910000012942515968885881764_);fill-opacity:0.48;}
	.st39{fill:url(#SVGID_00000178192149684543179210000015838064507190974370_);fill-opacity:0.77;}
	.st40{fill:url(#SVGID_00000033363032397973992360000001453355288643817865_);fill-opacity:0.63;}
	.st41{fill:url(#SVGID_00000148627731550694338100000006006634840833164186_);}
	.st42{fill:url(#SVGID_00000144322965129504599840000007591996928828955283_);fill-opacity:0.66;}
	.st43{fill:url(#SVGID_00000011737816756647870050000000554043461097039488_);fill-opacity:0.48;}
	.st44{fill:url(#SVGID_00000183238379910411349940000000167434481234208181_);fill-opacity:0.48;}
	.st45{fill:url(#SVGID_00000072973306154841850860000016878068617989520515_);fill-opacity:0.48;}
	.st46{fill:url(#SVGID_00000129196978146664470680000014329794922118897062_);fill-opacity:0.48;}
	.st47{fill:url(#SVGID_00000145745721871263911110000013709218904463240071_);fill-opacity:0.48;}
	.st48{fill:url(#SVGID_00000115509873822877526950000009448364792861974198_);fill-opacity:0.48;}
	.st49{fill:url(#SVGID_00000054246616190259507880000015785611374880112809_);fill-opacity:0.48;}
	.st50{fill:url(#SVGID_00000044873025788860907070000012546331705994308512_);fill-opacity:0.48;}
	.st51{fill:#008F39;}
	.st52{fill:url(#SVGID_00000021083243285673805860000010307408929750829742_);fill-opacity:0.48;}
	.st53{fill:url(#SVGID_00000034068652789788325680000013599905823496102791_);fill-opacity:0.48;}
	.st54{fill:url(#SVGID_00000122717209048882057950000002451603014233549211_);fill-opacity:0.77;}
	.st55{fill:url(#SVGID_00000120548369417363829490000015836874276241375384_);fill-opacity:0.63;}
	.st56{fill:url(#SVGID_00000147925917078586544010000008864810028132333217_);}
	.st57{fill:url(#SVGID_00000021820186724053590470000006290476548221794720_);fill-opacity:0.66;}
	.st58{fill:url(#SVGID_00000165935437442905982560000010822240449594203014_);fill-opacity:0.48;}
	.st59{fill:url(#SVGID_00000136408047737666238310000004276238663800831422_);fill-opacity:0.48;}
	.st60{fill:url(#SVGID_00000003805366135172335620000010705068579122074496_);fill-opacity:0.48;}
	.st61{fill:url(#SVGID_00000158001466613140053850000011689721239352204715_);fill-opacity:0.48;}
	.st62{fill:url(#SVGID_00000064338965846991998140000015343890407353159808_);fill-opacity:0.48;}
	.st63{fill:url(#SVGID_00000116197189134458779450000001120942476597500080_);fill-opacity:0.48;}
	.st64{fill:url(#SVGID_00000073681079586478885050000017712013332867768734_);fill-opacity:0.48;}
	.st65{fill:url(#SVGID_00000133510150955798298210000006867801155659631291_);fill-opacity:0.48;}
	.st66{fill:url(#SVGID_00000158736639149565193530000016402144139130598048_);fill-opacity:0.48;}
	.st67{fill:url(#SVGID_00000155865830506073639150000009125690499493331621_);fill-opacity:0.48;}
	.st68{fill:url(#SVGID_00000090998910227654310640000008558401883243047065_);fill-opacity:0.77;}
	.st69{fill:url(#SVGID_00000133529203845885760830000007617467099737694610_);fill-opacity:0.63;}
	.st70{fill:url(#SVGID_00000126311201840735284140000014778009352599494066_);}
	.st71{fill:url(#SVGID_00000120544386121060003670000014934299835318578582_);fill-opacity:0.66;}
	.st72{fill:url(#SVGID_00000139261306893857660250000002852768944502798498_);fill-opacity:0.48;}
	.st73{fill:url(#SVGID_00000181078240064001246580000001726331179319537049_);fill-opacity:0.48;}
	.st74{fill:url(#SVGID_00000036253378078045295640000015007959416054240942_);fill-opacity:0.48;}
	.st75{fill:url(#SVGID_00000114772191871880020070000002981970992856964011_);fill-opacity:0.48;}
	.st76{fill:url(#SVGID_00000111183858491298159710000016817245683601956767_);fill-opacity:0.48;}
	.st77{fill:url(#SVGID_00000008859844671694819630000010397695534906402722_);fill-opacity:0.48;}
	.st78{fill:url(#SVGID_00000008139188614236893340000015385542634788025524_);fill-opacity:0.48;}
	.st79{fill:url(#SVGID_00000010996964214457920520000014366896005125975715_);fill-opacity:0.48;}
	.st80{fill:#FFFFFF;}
	.st81{fill:#21218E;}
	.st82{fill:url(#SVGID_00000108305007247839040780000014250172092755686032_);}
	.st83{fill:#14168C;}
	.st84{fill:none;}
	.st85{fill:url(#SVGID_00000018948037303377422150000005686949426176064697_);}
	.st86{fill:url(#SVGID_00000160182449328851543030000004220181972172515765_);}
	.st87{fill:url(#SVGID_00000088829731287137720120000005801111344267345329_);}
	.st88{fill:url(#SVGID_00000018202933438489042910000013790522273214018958_);}
	.st89{fill:url(#SVGID_00000119098896376363184240000007940836656225553540_);fill-opacity:0.48;}
	.st90{fill:url(#SVGID_00000108303934151809207470000013214602356987561629_);fill-opacity:0.48;}
	.st91{fill:url(#SVGID_00000021815130691373675570000003913067176462482109_);fill-opacity:0.77;}
	.st92{fill:url(#SVGID_00000181800993268919297490000002550525024468708748_);fill-opacity:0.63;}
	.st93{fill:url(#SVGID_00000034787537084885187570000014660452810010179465_);}
	.st94{fill:url(#SVGID_00000054964517356976789860000009293527021034864826_);fill-opacity:0.66;}
	.st95{fill:url(#SVGID_00000161608013738093112310000017413837410922465703_);fill-opacity:0.48;}
	.st96{fill:url(#SVGID_00000124871588819410353860000018180107080486326183_);fill-opacity:0.48;}
	.st97{fill:url(#SVGID_00000111901675118985621400000005329229949128358056_);fill-opacity:0.48;}
	.st98{fill:url(#SVGID_00000037689705532595009770000004144956508906239633_);fill-opacity:0.48;}
	.st99{fill:url(#SVGID_00000095315535883613076020000014423398381625178023_);fill-opacity:0.48;}
	.st100{fill:url(#SVGID_00000137091560862311269830000000668103716812898490_);fill-opacity:0.48;}
	.st101{fill:url(#SVGID_00000008150360919722878140000010932970834722451356_);fill-opacity:0.48;}
	.st102{fill:url(#SVGID_00000148662779597865768860000007039488822868959104_);fill-opacity:0.48;}
	.st103{fill:url(#SVGID_00000078038956418142002220000017437685340876041858_);}
	.st104{fill:url(#SVGID_00000019660380892388095020000014010442903570042774_);}
	.st105{fill:url(#SVGID_00000091006966034927962580000008782842021831558276_);}
	.st106{fill:url(#SVGID_00000143584888154409858690000012433118920543376571_);fill-opacity:0.48;}
	.st107{fill:url(#SVGID_00000110447777072440155150000001029033033448928697_);fill-opacity:0.48;}
	.st108{fill:url(#SVGID_00000017490474074882413640000006716399156702015161_);fill-opacity:0.77;}
	.st109{fill:url(#SVGID_00000148630699332664795160000006846077072249646208_);fill-opacity:0.63;}
	.st110{fill:url(#SVGID_00000013893439593219498130000016196927012179568769_);}
	.st111{fill:url(#SVGID_00000142894159270479230070000009578917100992686481_);fill-opacity:0.66;}
	.st112{fill:url(#SVGID_00000096039238427366754460000002106944266225373825_);fill-opacity:0.48;}
	.st113{fill:url(#SVGID_00000078762996178727494310000007247211134512483733_);fill-opacity:0.48;}
	.st114{fill:url(#SVGID_00000023261395067460604150000016018420446123743421_);fill-opacity:0.48;}
	.st115{fill:url(#SVGID_00000177469604195264139870000012124616826189283251_);fill-opacity:0.48;}
	.st116{fill:url(#SVGID_00000065045142964537671040000015237085252688910737_);fill-opacity:0.48;}
	.st117{fill:url(#SVGID_00000177450382108609929390000001859552019713855654_);fill-opacity:0.48;}
	.st118{fill:url(#SVGID_00000092423403886013905540000000142115360764196030_);fill-opacity:0.48;}
	.st119{fill:url(#SVGID_00000084517333835999861140000017845873763222090167_);fill-opacity:0.48;}
	.st120{fill:#1A237E;}
	.st121{fill:url(#SVGID_00000067211434180697434780000007206269585056062883_);fill-opacity:0.48;}
	.st122{fill:url(#SVGID_00000046325071391877649530000010628463821766422924_);fill-opacity:0.48;}
	.st123{fill:url(#SVGID_00000164488692416266510190000011788933489951024521_);fill-opacity:0.77;}
	.st124{fill:url(#SVGID_00000051374729874209150380000002020026399886812824_);fill-opacity:0.63;}
	.st125{fill:url(#SVGID_00000160905317286413943860000009426230759033780376_);}
	.st126{fill:url(#SVGID_00000078026050445737727670000005675269575872344498_);fill-opacity:0.66;}
	.st127{fill:url(#SVGID_00000077314930982967458790000008760787822809952659_);fill-opacity:0.48;}
	.st128{fill:url(#SVGID_00000181052741363576692850000017254693744668646079_);fill-opacity:0.48;}
	.st129{fill:url(#SVGID_00000047738611550331223860000008904245287668844964_);fill-opacity:0.48;}
	.st130{fill:url(#SVGID_00000095338750328850890400000008335928608343932592_);fill-opacity:0.48;}
	.st131{fill:url(#SVGID_00000108303781747979543090000000021973074735488649_);fill-opacity:0.48;}
	.st132{fill:url(#SVGID_00000157998803182604198730000007910759849422790554_);fill-opacity:0.48;}
	.st133{fill:url(#SVGID_00000147219181958307513540000001150171904677723024_);fill-opacity:0.48;}
	.st134{fill:url(#SVGID_00000127034279653617440100000012960819425072169612_);fill-opacity:0.48;}
	.st135{fill:#F5F5F5;}
	.st136{fill:#FFFF00;}
	.st137{fill:url(#SVGID_00000115497269257481347870000005381481856682973590_);fill-opacity:0.48;}
	.st138{fill:url(#SVGID_00000060732381765979138370000014630740726215959172_);fill-opacity:0.48;}
	.st139{fill:url(#SVGID_00000177478175227489749240000004134990741721537446_);fill-opacity:0.77;}
	.st140{fill:url(#SVGID_00000020372419653861053970000004943866010818198943_);fill-opacity:0.63;}
	.st141{fill:url(#SVGID_00000086655774927710400140000004709012057845435574_);}
	.st142{fill:url(#SVGID_00000176024102865174490020000005392963328957461428_);fill-opacity:0.66;}
	.st143{fill:url(#SVGID_00000013183059816165154150000011526085111781542023_);fill-opacity:0.48;}
	.st144{fill:url(#SVGID_00000078732768636699140510000005986340404441675440_);fill-opacity:0.48;}
	.st145{fill:url(#SVGID_00000001655021216667189810000014555100487296314814_);fill-opacity:0.48;}
	.st146{fill:url(#SVGID_00000054962692558152763110000008674061294435214504_);fill-opacity:0.48;}
	.st147{fill:url(#SVGID_00000023253578208819049500000000961122199831744641_);fill-opacity:0.48;}
	.st148{fill:url(#SVGID_00000059295441502679814330000001439058595929865914_);fill-opacity:0.48;}
	.st149{fill:url(#SVGID_00000066500005433195109600000008993097008618313917_);fill-opacity:0.48;}
	.st150{fill:url(#SVGID_00000125595185862445173280000001445617001518949291_);fill-opacity:0.48;}
	.st151{fill:#00FF3C;}
	.st152{fill:url(#SVGID_00000093889988557811695770000010651934992020756614_);fill-opacity:0.48;}
	.st153{fill:url(#SVGID_00000076598325930565849840000009653031683057888665_);fill-opacity:0.48;}
	.st154{fill:url(#SVGID_00000155846224581525924510000001543643959491414144_);fill-opacity:0.77;}
	.st155{fill:url(#SVGID_00000078033397201231296970000001767683259066850476_);fill-opacity:0.63;}
	.st156{fill:url(#SVGID_00000078041941078304264310000001244304380429540532_);}
	.st157{fill:url(#SVGID_00000152262619719431666060000013857549789829650615_);fill-opacity:0.66;}
	.st158{fill:url(#SVGID_00000057826508642413921670000006699918595076528782_);fill-opacity:0.48;}
	.st159{fill:url(#SVGID_00000044157788037888734080000000056079699210708103_);fill-opacity:0.48;}
	.st160{fill:url(#SVGID_00000096771125200444943110000001687512423980396437_);fill-opacity:0.48;}
	.st161{fill:url(#SVGID_00000044865724552924551930000004945343663660065972_);fill-opacity:0.48;}
	.st162{fill:url(#SVGID_00000124155826632714898020000002276540683615530633_);fill-opacity:0.48;}
	.st163{fill:url(#SVGID_00000098944016818079376520000016648213688770861448_);fill-opacity:0.48;}
	.st164{fill:url(#SVGID_00000110451284000775253530000016420642464872554939_);fill-opacity:0.48;}
	.st165{fill:url(#SVGID_00000026148790760521857180000003904152084032141968_);fill-opacity:0.48;}
</style>
<g id="ICONBOX" class="st0">
	<g class="st1">
		<linearGradient id="SVGID_1_" gradientUnits="userSpaceOnUse" x1="348.8104" y1="-330.3538" x2="36.8815" y2="137.7317">
			<stop  offset="0" style="stop-color:#3FA9F5"/>
			<stop  offset="1" style="stop-color:#4343DD"/>
		</linearGradient>
		<path class="st2" d="M350-329.6c-26.8-6.9-55-10.6-84-10.6c-118.4,0-222.2,61.3-279.7,153.2C-44.1-138.6-61.7-81.6-61.7-20.6
			c0,36.7,6.4,71.9,18.1,104.7h371.7c12,0,21.8-9.8,21.8-21.8V-329.6z"/>
	</g>
</g>
<g id="LEAF">
	<g>
		<path class="st84" d="M79.6,59.1c0,0.2-0.1,0.4-0.1,0.6C79.5,59.5,79.5,59.3,79.6,59.1z"/>
		<path class="st84" d="M79.3,60.5c0,0.2-0.1,0.4-0.2,0.6C79.2,60.9,79.2,60.7,79.3,60.5z"/>
		<path class="st84" d="M54.4,82.8C53.7,82.9,53,83,52.3,83C53,83,53.7,82.9,54.4,82.8z"/>
		<path class="st84" d="M65.6,78.7c0.5-0.3,0.9-0.6,1.4-0.9l0,0C66.5,78.1,66.1,78.4,65.6,78.7z"/>
		<path class="st84" d="M56.6,82.3c-0.6,0.1-1.2,0.3-1.9,0.4C55.4,82.6,56,82.5,56.6,82.3z"/>
		<path class="st84" d="M77.9,64.5c0.1-0.1,0.1-0.3,0.2-0.4C78,64.3,78,64.4,77.9,64.5L77.9,64.5z"/>
		<path class="st84" d="M79.8,57.7c0,0.2-0.1,0.4-0.1,0.6C79.8,58.1,79.8,57.9,79.8,57.7z"/>
		<path class="st84" d="M51.8,83c-0.7,0.1-1.5,0.1-2.2,0.1C50.3,83.1,51.1,83.1,51.8,83z"/>
		<path class="st84" d="M80,56.3c0,0.2,0,0.4-0.1,0.6C80,56.7,80,56.5,80,56.3z"/>
		<path class="st84" d="M80.1,54.9c0,0.2,0,0.3,0,0.5C80.1,55.2,80.1,55,80.1,54.9z"/>
		<path class="st84" d="M61.2,80.9c-0.6,0.2-1.2,0.4-1.8,0.6C60,81.4,60.6,81.2,61.2,80.9z"/>
		<path class="st84" d="M65.5,78.8c-0.6,0.3-1.2,0.7-1.8,1C64.3,79.5,64.9,79.2,65.5,78.8z"/>
		<path class="st84" d="M59,81.7c-0.7,0.2-1.3,0.4-2,0.6C57.7,82.1,58.3,81.9,59,81.7z"/>
		<path class="st84" d="M78.4,63.2c-0.1,0.2-0.1,0.3-0.2,0.5C78.3,63.6,78.4,63.4,78.4,63.2z"/>
		<path class="st84" d="M78.9,61.9c-0.1,0.2-0.1,0.4-0.2,0.6C78.8,62.3,78.8,62.1,78.9,61.9z"/>
		<path class="st84" d="M63.3,80c-0.6,0.3-1.2,0.6-1.9,0.8C62,80.6,62.7,80.3,63.3,80z"/>
		<path class="st80" d="M79.5,59.7c-0.1,0.3-0.1,0.5-0.2,0.8C79.3,60.3,79.4,60,79.5,59.7z"/>
		<path class="st80" d="M79.9,56.9c0,0.3-0.1,0.6-0.1,0.9C79.9,57.4,79.9,57.2,79.9,56.9z"/>
		<path class="st80" d="M78.7,62.4c-0.1,0.3-0.2,0.5-0.3,0.8C78.5,63,78.6,62.7,78.7,62.4z"/>
		<path class="st80" d="M79.7,58.3c0,0.3-0.1,0.5-0.2,0.8C79.6,58.9,79.7,58.6,79.7,58.3z"/>
		<path class="st80" d="M79.1,61.1c-0.1,0.3-0.2,0.5-0.2,0.8C79,61.6,79,61.4,79.1,61.1z"/>
		<path class="st80" d="M63.7,79.8c-0.1,0.1-0.3,0.1-0.4,0.2C63.4,79.9,63.6,79.9,63.7,79.8z"/>
		<path class="st80" d="M59.4,81.6c-0.1,0-0.3,0.1-0.4,0.1C59.1,81.7,59.3,81.6,59.4,81.6z"/>
		<path class="st80" d="M61.4,80.8c-0.1,0-0.1,0.1-0.2,0.1C61.3,80.9,61.3,80.9,61.4,80.8z"/>
		<path class="st80" d="M65.6,78.7c0,0-0.1,0.1-0.1,0.1C65.5,78.8,65.6,78.8,65.6,78.7z"/>
		<path class="st80" d="M80.2,53.4c0,0.5,0,1,0,1.5C80.1,54.4,80.2,53.9,80.2,53.4z"/>
		<path class="st80" d="M57,82.3c-0.1,0-0.3,0.1-0.4,0.1C56.7,82.3,56.9,82.3,57,82.3z"/>
		<path class="st80" d="M78.2,63.9c0,0,0-0.1,0.1-0.1c0,0.1-0.1,0.3-0.2,0.4C78.1,64.1,78.2,64,78.2,63.9z"/>
		<path class="st80" d="M52.3,83c-0.2,0-0.3,0-0.5,0C52,83,52.1,83,52.3,83z"/>
		<path class="st80" d="M54.7,82.7c-0.1,0-0.2,0-0.3,0.1C54.5,82.8,54.6,82.7,54.7,82.7z"/>
		<path class="st80" d="M80.1,55.3c0,0.3,0,0.6-0.1,1C80,56,80.1,55.7,80.1,55.3z"/>
		<path class="st12" d="M77.5,65.6L77.5,65.6c0.2-0.4,0.3-0.7,0.5-1.1l0,0C77.8,64.9,77.6,65.2,77.5,65.6z"/>
		<path class="st12" d="M76.2,68.1c-0.3,0.5-0.6,1-0.9,1.4C75.6,69.1,75.9,68.6,76.2,68.1z"/>
		<path class="st12" d="M73.7,71.7c-0.4,0.4-0.7,0.9-1.1,1.3C72.9,72.6,73.3,72.2,73.7,71.7z"/>
		<path class="st12" d="M77.3,66.1c-0.3,0.6-0.6,1.1-0.9,1.7C76.7,67.2,77,66.6,77.3,66.1z"/>
		<path class="st12" d="M77.4,65.7C77.4,65.7,77.5,65.6,77.4,65.7L77.4,65.7C77.5,65.6,77.4,65.7,77.4,65.7z"/>
		<path class="st12" d="M75.1,69.8c-0.4,0.5-0.7,1-1.1,1.5C74.3,70.9,74.7,70.4,75.1,69.8z"/>
		<g>
			<polygon class="st12" points="33.2,65.8 47.8,44.5 109.5,86.7 			"/>
			<path class="st80" d="M47.9,45.2l58.8,40.3L34,65.5L47.9,45.2 M47.7,43.8L32.4,66.1l79.8,22L47.7,43.8L47.7,43.8z"/>
		</g>
		<path class="st12" d="M77.4,65.7c-0.1,0.1-0.1,0.3-0.2,0.4C77.3,65.9,77.4,65.8,77.4,65.7z"/>
		<path class="st12" d="M73.9,71.4c-0.1,0.1-0.2,0.2-0.3,0.3C73.7,71.6,73.8,71.5,73.9,71.4z"/>
		<path class="st12" d="M75.3,69.5c-0.1,0.1-0.1,0.2-0.2,0.3C75.1,69.7,75.2,69.6,75.3,69.5z"/>
		<path class="st12" d="M76.4,67.8c-0.1,0.1-0.1,0.2-0.2,0.3C76.2,68,76.3,67.9,76.4,67.8z"/>
		<path class="st12" d="M80.1,55.3c0,0.3,0,0.6-0.1,1c0,0.2,0,0.4-0.1,0.6c0,0.3-0.1,0.6-0.1,0.9c0,0.1,0,0.2-0.1,0.3l-6.1,1.2
			l20.1,13.7l13.7-20.1l-9.1,1.7c0-0.4,0-0.7,0-1.1C98.4,27.2,76.5,6,49.6,6S0.8,27.2,0.8,53.4s21.8,47.4,48.8,47.4
			c15.2,0,28.8-6.8,37.7-17.4L67,77.8c-0.5,0.3-0.9,0.6-1.4,0.9c0,0-0.1,0.1-0.1,0.1c-0.6,0.3-1.2,0.7-1.8,1
			c-0.1,0.1-0.3,0.1-0.4,0.2c-0.6,0.3-1.2,0.6-1.9,0.8c-0.1,0-0.1,0.1-0.2,0.1c-0.6,0.2-1.2,0.4-1.8,0.6c-0.1,0-0.3,0.1-0.4,0.1
			c-0.7,0.2-1.3,0.4-2,0.6c-0.1,0-0.3,0.1-0.4,0.1c-0.6,0.1-1.2,0.3-1.9,0.4c-0.1,0-0.2,0-0.3,0.1C53.7,82.9,53,83,52.3,83
			c-0.2,0-0.3,0-0.5,0c-0.7,0.1-1.5,0.1-2.2,0.1C32.7,83.1,19,69.8,19,53.4s13.7-29.7,30.6-29.7c16.9,0,30.6,13.3,30.6,29.7
			c0,0.5,0,1,0,1.5C80.1,55,80.1,55.2,80.1,55.3z"/>
	</g>
</g>
<g id="Layer_5">
</g>
<g id="Layer_3">
</g>
<g id="Layer_1">
</g>
</svg>
